HIERARCHY
ROOT Hips
{
  OFFSET 0 0 0
  CHANNELS 6 Xposition Yposition Zposition Zrotation Yrotation Xrotation
  JOINT LeftThigh
  {
    OFFSET 8.409438 0 -5.917753
    CHANNELS 3 Zrotation Yrotation Xrotation
    JOINT LeftLeg
    {
      OFFSET 0 0 -42.358652
      CHANNELS 3 Zrotation Yrotation Xrotation
      JOINT LeftFoot
      {
        OFFSET 0 0 -39.357303
        CHANNELS 3 Zrotation Yrotation Xrotation
      }
    }
  }
  JOINT RightThigh
  {
    OFFSET -8.409438 0 -5.917753
    CHANNELS 3 Zrotation Yrotation Xrotation
    JOINT RightLeg
    {
      OFFSET 0 0 -42.358652
      CHANNELS 3 Zrotation Yrotation Xrotation
      JOINT RightFoot
      {
        OFFSET 0 0 -39.357303
        CHANNELS 3 Zrotation Yrotation Xrotation
      }
    }
  }
  JOINT SpineLow
  {
    OFFSET 0 0 4.719101
    CHANNELS 3 Zrotation Yrotation Xrotation
    JOINT SpineMid
    {
      OFFSET 0 0 12.899191
      CHANNELS 3 Zrotation Yrotation Xrotation
      JOINT Chest
      {
        OFFSET 0 0 12.899191
        CHANNELS 3 Zrotation Yrotation Xrotation
        JOINT LeftShoulder
        {
          OFFSET 7.550562 1.41573 9.438202
          CHANNELS 3 Zrotation Yrotation Xrotation
          JOINT LeftArm
          {
            OFFSET 9.155056 0 4.247191
            CHANNELS 3 Zrotation Yrotation Xrotation
            JOINT LeftForearm
            {
              OFFSET 0 0 25.771955
              CHANNELS 3 Zrotation Yrotation Xrotation
              JOINT LeftHand
              {
                OFFSET 0 0 25.197169
                CHANNELS 3 Zrotation Yrotation Xrotation
              }
            }
          }
        }
        JOINT RightShoulder
        {
          OFFSET -7.550562 1.41573 9.438202
          CHANNELS 3 Zrotation Yrotation Xrotation
          JOINT RightArm
          {
            OFFSET -9.155056 0 4.247191
            CHANNELS 3 Zrotation Yrotation Xrotation
            JOINT RightForearm
            {
              OFFSET 0 0 -25.771955
              CHANNELS 3 Zrotation Yrotation Xrotation
              JOINT RightHand
              {
                OFFSET 0 0 -25.197169
                CHANNELS 3 Zrotation Yrotation Xrotation
              }
            }
          }
        }
        JOINT Neck
        {
          OFFSET 0 0 15.101124
          CHANNELS 3 Zrotation Yrotation Xrotation
          JOINT Head
          {
            OFFSET 0 0 11.325843
            CHANNELS 3 Zrotation Yrotation Xrotation
            End Site
            {
              OFFSET 0 0 14.157303
            }
          }
        }
      }
    }
  }
}
MOTION
Frames: 7
Frame Time: 0.0
0.0  101.685394  0.0  0.981952  18.37233  -95.79591  37.946539  -23.991541  16.385037  -20.569582  2.158892  20.675494  -3.916042  3.092839  -3.070355  -11.976385  0.750017  -37.752434  2.010858  3.851682  54.775216  8.295693  2.777666  1.353427  -2.536566  0.095231  2.886725  -6.910884  0.561781  7.870779  -6.910884  0.561781  7.870779  -11.668152  28.187364  2.780072  145.722501  70.358907  -150.749397  -37.378968  -32.165289  85.024606  58.153452  -24.901192  3.395811  13.250883  -5.957488  18.715893  89.049039  37.091997  30.663187  -40.475182  16.672802  -99.037251  73.429558  26.474662  4.148464  1.955835  -1.865496  -4.515305  1.453053  -1.413679  -3.380249  
0.0  101.685394  0.0  0.845649  18.297012  -95.779211  37.922953  -24.064949  16.494645  -20.488769  2.002956  20.383501  -3.940163  3.071395  -2.823522  -11.583112  0.540993  -37.606986  1.386194  4.068389  54.773062  7.820172  3.019809  1.239977  -2.547631  0.076503  2.886466  -6.943292  0.512025  7.871884  -6.943291  0.512025  7.871883  -11.922579  28.276314  2.596133  145.189465  70.477468  -150.941313  -37.633743  -32.016319  85.100467  57.943938  -24.835365  3.109934  13.185758  -5.889614  18.489949  87.979423  36.19933  30.561832  -40.488197  17.198885  -98.973042  73.25109  26.552362  3.0233  1.856876  -2.022628  -4.561515  1.377501  -1.530946  -3.414671  
0.0  101.685394  0.0  0.660172  18.186738  -95.840518  37.006075  -23.710136  16.386731  -19.56633  1.798601  20.704991  -3.854683  3.08023  -2.541644  -12.339235  0.576793  -37.808458  1.482084  3.656329  55.265647  7.835712  3.263759  1.06487  -2.57504  0.055119  2.872837  -7.020753  0.455554  7.83662  -7.020753  0.455554  7.83662  -12.48107  28.298699  2.405518  145.355828  70.534751  -150.761252  -37.932158  -31.985803  85.216043  57.732527  -24.779922  2.806098  13.244035  -5.781882  18.43152  86.688785  35.286188  30.34976  -40.398886  17.652525  -98.901078  73.797849  26.120702  2.336524  1.808832  -2.149069  -4.506065  1.340699  -1.625258  -3.372825  
0.0  101.685394  0.0  0.450621  18.226472  -95.906642  36.793718  -23.830735  16.640795  -19.487177  1.562742  20.347829  -3.768684  3.041119  -2.283327  -12.059963  0.240431  -37.391213  0.738484  4.498462  55.284126  8.600094  3.53163  0.866535  -2.645201  0.032996  2.841078  -7.215127  0.4001  7.751596  -7.215127  0.4001  7.751596  -12.624995  28.456497  2.337634  144.809086  70.620577  -151.025846  -38.241823  -32.097779  85.362071  57.50386  -24.74201  2.508277  13.147306  -5.628858  18.422262  85.508564  34.245752  30.126631  -40.197751  17.966323  -98.837896  73.849405  25.979904  1.101467  1.809369  -2.290317  -4.369629  1.340544  -1.730795  -3.270037  
0.0  101.685394  0.0  0.198831  18.162557  -96.005932  36.580784  -23.957814  16.890846  -19.430476  1.340983  19.942286  -3.577191  2.985684  -1.943797  -11.827761  -0.2944  -36.853611  0.300232  5.511869  55.386131  9.906529  3.76138  0.534095  -2.724918  0.007049  2.784581  -7.436182  0.332373  7.599526  -7.436181  0.332373  7.599526  -13.03332  28.523289  2.170053  144.861902  70.498582  -150.975914  -38.526432  -32.329323  85.516949  57.22382  -24.688191  2.24128  12.995316  -5.511135  18.437157  84.475806  33.000889  30.031793  -39.965573  18.170422  -98.794725  73.901274  25.788184  -0.276735  1.867599  -2.419545  -4.129454  1.384209  -1.827394  -3.089267  
0.0  101.685394  0.0  -0.032441  18.16826  -96.033651  36.308071  -24.032911  17.137756  -19.217635  1.130107  19.604326  -3.521954  2.838702  -1.631119  -11.741054  -0.927324  -36.254203  0.280856  6.365167  55.478014  11.310812  3.905331  0.091644  -2.826903  -0.018338  2.699032  -7.718071  0.264923  7.368121  -7.718072  0.264923  7.36812  -12.972314  28.762727  2.24103  144.407581  70.429065  -151.021392  -38.742196  -32.526311  85.68195  56.873267  -24.598852  2.027354  12.837135  -5.295959  18.582777  83.327664  31.760649  29.851553  -39.674808  18.360873  -98.792204  73.899098  25.60446  -1.657394  1.925017  -2.553056  -3.8314  1.427575  -1.92697  -2.865063  
0.0  101.685394  0.0  -0.291469  18.166426  -96.083559  35.924686  -24.084883  17.378731  -18.915468  0.910312  19.36136  -3.432461  2.6898  -1.301945  -11.766676  -1.701349  -35.546481  0.992781  6.882333  55.408152  12.302153  3.77799  -0.295914  -2.940398  -0.045237  2.606291  -8.031443  0.193004  7.117443  -8.031443  0.193004  7.117443  -13.146966  28.899441  2.232836  144.545973  70.24576  -150.622407  -38.914228  -32.589384  85.851749  56.431147  -24.461698  1.862731  12.624893  -5.064791  18.738799  82.2406  30.415836  29.760602  -39.482807  18.565828  -98.822555  73.891842  25.475594  -2.96214  1.988068  -2.699172  -3.512503  1.475309  -2.035907  -2.625138  
